<svg width="24" height="24" viewBox="0 0 100 100" fill="none" xmlns="http://www.w3.org/2000/svg">
<path fill-rule="evenodd" clip-rule="evenodd" d="M84.355 29.2276L77.4169 25.2219L73.3325 27.4892L58.0686 18.6766L57.99 14.0058L51.0518 10L50.887 24.7062L71.7015 36.7235L84.355 29.2276ZM42.1663 14.0058L49.1044 10L49.2693 24.7062L28.4548 36.7235L15.8012 29.2276L22.7394 25.2219L26.8237 27.4892L42.0877 18.6766L42.1663 14.0058ZM15 30.8299V38.8414L19.0058 41.2449V58.8702L15 61.2736V69.2851L27.8184 62.0748V38.0403L15 30.8299ZM34.2276 40.4437V58.8702L49.4495 68.484H51.0518L66.2736 59.6713V40.4437L51.0518 31.6311H49.4495L34.2276 40.4437ZM22.7393 74.7781L15.8012 70.7724L28.4547 63.2765L49.2692 75.2938L49.1043 90L42.1662 85.9942L42.0876 81.3234L26.8236 72.5108L22.7393 74.7781ZM51.0518 90L57.9899 85.9942L58.0685 81.3234L73.3325 72.5108L77.4168 74.7781L84.3549 70.7724L71.7014 63.2765L50.8869 75.2938L51.0518 90Z" fill="#03FEF7"/>
</svg>
